<?xml version="1.0"?><svg width="640" height="480" xmlns="http://www.w3.org/2000/svg">
 <title>blue balloons</title>

 <metadata id="metadata5901">image/svg+xmlBallonsballonpartybirthdaykidsheliumThree ballons (red,blue and orange) attatched together.Carlos Asmat</metadata>
 <g>
  <title>Layer 1</title>
  <path d="m104.427002,254.143997c2.234001,-0.26799 17.754997,20.445999 16.869995,22.516006c-0.884995,2.069 -26.584999,5.152985 -27.934601,3.35199c-1.349693,-1.800995 8.829605,-25.599991 11.064606,-25.867996z" stroke-width="2" stroke-miterlimit="4" stroke-linejoin="round" stroke-linecap="round" stroke-dashoffset="0" fill="#fcc2c2" id="path14767"/>
  <path d="m189.669998,146.770004c0,47.338989 -42.276993,118.016006 -85.759995,118.016006c-44.772903,0 -85.759804,-70.677017 -85.759804,-118.016006c0,-47.339706 38.420502,-90.921204 85.759804,-90.921204c47.339996,0 85.759995,43.581497 85.759995,90.921204z" stroke-width="5.25532" stroke-miterlimit="4" stroke-linejoin="round" stroke-linecap="round" stroke-dashoffset="0" fill="#f7c8c8" id="path14753"/>
  <path d="m97.330399,265.110992c5.401604,-1.113983 9.197601,-2.252991 16.287598,-0.60498c8.719002,103.129974 64.981003,151.472992 89.304001,244.408997c1.891998,7.228973 -0.897995,19.215973 0.628998,26.972015" stroke-width="3" stroke-miterlimit="4" stroke-linejoin="round" stroke-linecap="round" stroke="#816647" marker-mid="none" marker-end="none" fill-rule="evenodd" fill="none" id="path14790"/>
  <path d="m286.369995,212.251999c2.234009,-0.268005 17.755005,20.447006 16.869995,22.516006c-0.884979,2.069992 -26.584991,5.153992 -27.934998,3.352997c-1.348999,-1.802002 8.830017,-25.600006 11.065002,-25.869003z" stroke-width="2" stroke-miterlimit="4" stroke-linejoin="round" stroke-linecap="round" stroke-dashoffset="0" fill="#ffaaaa" id="path14822"/>
  <path d="m371.613007,104.877998c0,47.340004 -42.277008,118.015999 -85.76001,118.015999c-44.772995,0 -85.759995,-70.675995 -85.759995,-118.015999c0,-47.339397 38.421005,-90.920898 85.759995,-90.920898c47.339996,0 85.76001,43.581501 85.76001,90.920898z" stroke-width="5.25532" stroke-miterlimit="4" stroke-linejoin="round" stroke-linecap="round" stroke-dashoffset="0" fill="#f4baba" id="path14824"/>
  <path d="m279.27301,223.218994c5.401978,-1.113998 9.197998,-2.252991 16.287994,-0.603989c-13.582001,140.861008 -70.037003,171.400986 -87.361008,286.453995c-0.313004,2.07901 0.966003,10.685028 2.968002,26.564972" stroke-width="3" stroke-miterlimit="4" stroke-linejoin="round" stroke-linecap="round" stroke="#816647" marker-start="none" marker-end="none" fill-rule="evenodd" fill="none" id="path14826"/>
  <path d="m185.712006,272.207001c2.235001,-0.268005 17.75499,20.446991 16.869995,22.515991c-0.884995,2.070007 -26.585007,5.154022 -27.934006,3.35202c-1.349991,-1.801025 8.82901,-25.600006 11.064011,-25.868011z" stroke-width="2" stroke-miterlimit="4" stroke-linejoin="round" stroke-linecap="round" stroke-dashoffset="0" fill="#ffaaaa" id="path14796"/>
  <path d="m270.955994,164.832993c0,47.340012 -42.276993,118.017014 -85.759995,118.017014c-44.772995,0 -85.7603,-70.677002 -85.7603,-118.017014c0,-47.338989 38.420303,-90.920792 85.7603,-90.920792c47.339005,0 85.759995,43.581802 85.759995,90.920792z" stroke-width="5.25532" stroke-miterlimit="4" stroke-linejoin="round" stroke-linecap="round" stroke-dashoffset="0" fill="#ffaaaa" id="path14798"/>
  <path d="m178.615997,283.174011c5.402008,-1.114014 9.197006,-2.252014 16.28801,-0.604004c8.059998,72.028992 23.388992,130.708008 10.953995,225.315979c-0.313004,3.005005 1.550003,18.026001 1.153992,28.411011" stroke-width="3" stroke-miterlimit="4" stroke-linejoin="round" stroke-linecap="round" stroke="#816647" marker-end="none" fill-rule="evenodd" fill="none" id="path14800"/>
  <path d="m205.576004,509.296997c-0.688004,0.085999 -0.927002,0.269989 -2.973007,0.539001c-0.529999,-0.010986 -0.966995,0.408997 -0.977997,0.937988c-0.011002,0.529022 0.408997,0.96701 0.938004,0.978027c-0.291,0.211975 -0.661011,0.607971 -0.619003,1.156982c0.024994,0.322021 0.25,0.634033 0.459,0.797974c-0.007004,0.049011 -0.031998,0.085022 -0.039993,0.140015c-0.058014,0.384033 -0.133011,0.890015 -0.219009,1.596985c-0.067001,0.529053 0.309006,1.011047 0.837997,1.077026c0.529007,0.067017 1.011002,-0.309021 1.077011,-0.838013c0.050995,-0.412964 0.084,-0.615967 0.119995,-0.89801c0.395004,0.18103 0.856995,0.318054 1.436996,0.299011c1.040009,-0.031982 2.28801,-0.47699 3.891998,-1.596008c0.281998,-0.190979 0.442001,-0.518005 0.419006,-0.857971c-0.025009,-0.346985 -0.278,-0.688995 -0.499008,-0.83902c-0.044998,-0.029999 -0.077988,-0.016998 -0.119995,-0.038971c0.289001,-0.223999 0.624008,-0.624023 0.578995,-1.15802c-0.030991,-0.441986 -0.360992,-0.804993 -0.797989,-0.877991c-2.289001,-0.380005 -2.824997,-0.505005 -3.513,-0.419006z" stroke-width="3" stroke-miterlimit="4" stroke-linejoin="round" stroke-linecap="round" fill-rule="evenodd" fill="#816647" id="path6930"/>
 </g>
</svg>