<?xml version="1.0"?><svg width="640" height="480" xmlns="http://www.w3.org/2000/svg" xmlns:xlink="http://www.w3.org/1999/xlink">
 <defs>
  <linearGradient id="linearGradient12909">
   <stop stop-color="#f5db94" offset="0" id="stop12910"/>
   <stop stop-color="#be7900" offset="1" id="stop12911"/>
  </linearGradient>
  <linearGradient id="linearGradient12906">
   <stop stop-color="#67e869" offset="0" id="stop12907"/>
   <stop stop-color="#1a4c00" offset="1" id="stop12908"/>
  </linearGradient>
  <linearGradient id="linearGradient10342">
   <stop stop-color="#67e869" offset="0" id="stop10343"/>
   <stop stop-color="#1a4c00" offset="1" id="stop10344"/>
  </linearGradient>
  <linearGradient id="linearGradient9715">
   <stop stop-color="#67ff69" offset="0" id="stop9716"/>
   <stop stop-color="#1a7600" offset="1" id="stop9717"/>
  </linearGradient>
  <linearGradient id="linearGradient9088">
   <stop stop-color="#c5ab00" offset="0" id="stop9089"/>
   <stop stop-color="#746b00" offset="1" id="stop9090"/>
  </linearGradient>
  <linearGradient id="linearGradient8463">
   <stop stop-color="#ffe59e" offset="0" id="stop8464"/>
   <stop stop-color="#db8e00" offset="1" id="stop8465"/>
  </linearGradient>
  <linearGradient id="linearGradient4088">
   <stop stop-color="#a00000" offset="0" id="stop4089"/>
   <stop stop-color="#510000" offset="1" id="stop4090"/>
  </linearGradient>
  <linearGradient id="linearGradient3462">
   <stop stop-color="#ff5f5f" offset="0" id="stop3463"/>
   <stop stop-color="#890000" offset="1" id="stop3464"/>
  </linearGradient>
  <radialGradient xlink:href="#linearGradient3462" r="0.660899" id="radialGradient3465" fy="0.242188" fx="0.214286" cy="0.257813" cx="0.196429"/>
  <linearGradient y2="0.304688" y1="0.648438" xlink:href="#linearGradient4088" x2="0.655738" x1="0.647541" id="linearGradient4087"/>
  <radialGradient xlink:href="#linearGradient8463" r="0.642237" id="radialGradient8466" fy="0.279034" fx="0.270442" cy="0.293551" cx="0.275286"/>
  <radialGradient xlink:href="#linearGradient9715" r="0.660899" id="radialGradient9718" fy="0.242188" fx="0.214286" cy="0.257813" cx="0.196429"/>
  <linearGradient y2="0.179688" y1="1.03125" xlink:href="#linearGradient10342" x2="0.233333" x1="0.466667" id="linearGradient10341"/>
  <linearGradient y2="0.34375" y1="0.875" xlink:href="#linearGradient12909" x2="0.693548" x1="0.491935" id="linearGradient12905"/>
 </defs>
 <g>
  <title>Layer 1</title>
  <g id="g13540">
   <path fill="none" fill-opacity="0.75" fill-rule="evenodd" stroke="#000000" stroke-width="3.75" stroke-linecap="round" stroke-linejoin="round" stroke-miterlimit="4" id="path2211" d="m343.313782,306.924164c-2.704681,31.348297 -19.556091,64.950775 -3.223938,95.172699c21.351898,32.589264 69.063843,36.458282 85.49823,73.722931c13.752777,23.799164 11.53302,51.690277 8.98288,77.901337c-1.787201,20.53894 1.543884,42.825867 16.851532,57.900757c9.052643,12.180847 17.175507,26.574036 15.821259,42.306091"/>
   <path fill="url(#linearGradient4087)" fill-rule="evenodd" stroke-width="1.0000000pt" id="path1553" d="m336.600922,283.429138c1.608337,5.053345 -0.203583,10.424377 -2.653473,14.883118c-0.934479,2.080109 -2.501862,3.742493 -3.756134,5.611816c-0.936432,1.366974 -1.465454,3.757477 0.449432,4.563751c1.39151,0.506866 2.939453,0.41922 4.410797,0.411621c3.905945,-0.251343 7.878052,-2.07431 11.762817,-0.73587c3.055084,1.349976 6.041046,3.38324 9.532654,3.142822c2.283356,-0.025696 3.590515,-2.728638 2.15213,-4.528412c-1.290039,-2.134033 -3.230713,-3.904663 -3.854401,-6.404663c-2.152405,-5.636139 -1.59726,-11.871338 -0.177185,-17.610382c0.213379,-2.315796 -2.59903,-3.593262 -4.536438,-2.819794c-3.999329,1.0401 -7.367737,4.381897 -11.732361,3.914093c-0.549103,-0.066772 -1.089966,-0.208008 -1.597839,-0.428101z"/>
   <path fill="url(#radialGradient3465)" fill-rule="evenodd" stroke-width="1.0000000pt" id="path930" d="m463.400085,154.02623c0.021606,-72.885857 -50.798157,-131.984869 -113.495056,-131.984869c-62.696899,0 -113.516708,59.099028 -113.495056,131.984884c-0.021637,72.885864 50.798157,131.984863 113.495056,131.984863c62.696899,0 113.516693,-59.099045 113.495056,-131.984909l0,0.000031z"/>
  </g>
 </g>
</svg>