<?xml version="1.0" encoding="UTF-8"?>
<svg width="640" height="480" xmlns="http://www.w3.org/2000/svg" xmlns:svg="http://www.w3.org/2000/svg">
 <g>
  <title>Layer 1</title>
  <g id="svg_1">
   <path d="m343.31378,306.92416c-2.70468,31.3483 -19.55609,64.95078 -3.22394,95.1727c21.3519,32.58927 69.06385,36.45828 85.49823,73.72293c13.75278,23.79917 11.53302,51.69028 8.98288,77.90134c-1.7872,20.53894 1.54389,42.82587 16.85154,57.90076c9.05264,12.18084 17.1755,26.57403 15.82126,42.30609" id="path2211" stroke-miterlimit="4" stroke-linejoin="round" stroke-linecap="round" stroke-width="3.75" stroke="#f9f4f4" fill-rule="evenodd" fill-opacity="0.75" fill="none"/>
   <path d="m336.60092,283.42914c1.60834,5.05334 -0.20358,10.42438 -2.65347,14.88312c-0.93448,2.08011 -2.50186,3.74249 -3.75613,5.61181c-0.93644,1.36698 -1.46546,3.75748 0.44943,4.56375c1.39151,0.50687 2.93945,0.41922 4.41079,0.41162c3.90595,-0.25134 7.87806,-2.07431 11.76282,-0.73587c3.05509,1.34998 6.04105,3.38324 9.53265,3.14283c2.28336,-0.0257 3.59052,-2.72864 2.15213,-4.52842c-1.29003,-2.13403 -3.23071,-3.90466 -3.8544,-6.40466c-2.1524,-5.63614 -1.59726,-11.87134 -0.17718,-17.61038c0.21338,-2.3158 -2.59903,-3.59326 -4.53644,-2.81979c-3.99933,1.0401 -7.36774,4.38189 -11.73236,3.91409c-0.5491,-0.06677 -1.08997,-0.20801 -1.59784,-0.4281z" id="path1553" stroke-width="1.0000000pt" fill-rule="evenodd" fill="#d4aaff"/>
   <path d="m463.40008,154.02623c0.02161,-72.88586 -50.79815,-131.98486 -113.49505,-131.98486c-62.6969,0 -113.51671,59.09903 -113.49506,131.98488c-0.02163,72.88586 50.79816,131.98486 113.49506,131.98486c62.6969,0 113.51669,-59.09905 113.49505,-131.98491l0,0.00003z" id="path930" stroke-width="1.0000000pt" fill-rule="evenodd" fill="#d4aaff"/>
  </g>
 </g>
</svg>